<svg width="52" height="46" viewBox="0 0 52 46" fill="none" xmlns="http://www.w3.org/2000/svg">
<path d="M0.128414 35.4484C0.0853296 35.3843 0.042525 35.3198 0 35.255C0.0355181 35.2758 0.0655613 35.304 0.0878222 35.3375C0.110083 35.3711 0.123969 35.409 0.128414 35.4484V35.4484Z" fill="#25523B"/>
<path d="M52 26.5869C51.1353 30.9122 49.1354 34.9594 46.1861 38.3525V38.3525C41.1293 44.1781 33.6804 45.9608 25.1182 45.9608C19.7873 45.9608 14.6096 46.4515 10.3917 43.9587C5.97375 41.3472 2.41843 37.6047 0.133008 33.1598C0.133395 33.1367 0.131921 33.1135 0.128601 33.0906C4.2878 39.2749 10.7878 41.1618 16.9509 38.2569C24.5493 34.4525 20.1113 21.7322 19.7388 20.9878C19.6183 20.7468 19.5041 20.5042 19.3964 20.26C19.3525 20.1602 19.2042 19.9135 18.9791 19.7642C18.6876 19.5712 18.3057 19.4833 18.2514 19.474C17.9576 19.4247 17.6689 19.3612 17.3863 19.2863C16.6492 19.0884 15.9369 18.8152 15.2618 18.4713C14.6039 18.1367 13.9789 17.7466 13.3943 17.3058C12.8216 16.8739 12.2832 16.4023 11.7837 15.8948C11.5355 15.6439 11.297 15.3865 11.0682 15.1225C10.9536 14.9905 10.8413 14.8574 10.7312 14.7232C10.6762 14.656 10.6216 14.5885 10.5675 14.5206L10.4869 14.4178L10.4819 14.4115L10.4945 14.4246L10.492 14.4214L10.4823 14.4105L10.4624 14.3875L10.4204 14.341C10.2001 14.0919 9.97118 13.8448 9.73869 13.6024C9.5062 13.3601 9.26993 13.119 9.02737 12.8842C8.78481 12.6495 8.53764 12.4191 8.28374 12.1952C8.02985 11.9712 7.77051 11.7538 7.50214 11.5464C7.23472 11.3376 6.95521 11.1432 6.66493 10.9642C6.51931 10.8754 6.36991 10.7917 6.21548 10.7167C6.06104 10.6402 5.90043 10.5756 5.73518 10.5234C5.90789 10.5545 6.07775 10.5985 6.24318 10.655C6.40957 10.7107 6.5726 10.7748 6.73291 10.8462C7.05257 10.99 7.3636 11.1505 7.66454 11.3271C7.96649 11.5019 8.26087 11.6886 8.55002 11.8822C8.83916 12.0758 9.12242 12.2768 9.4017 12.483C9.68098 12.6892 9.95586 12.9006 10.2272 13.1168C10.4985 13.333 10.7656 13.5529 11.0302 13.7813L11.0799 13.8244L11.1051 13.8464L11.1181 13.8579L11.121 13.8605L11.1368 13.8771V13.8781L11.1422 13.8835L11.2322 13.9701C11.2924 14.0279 11.353 14.085 11.4139 14.1416C11.5359 14.2552 11.6593 14.3668 11.7841 14.4763C12.0338 14.6955 12.2896 14.9063 12.5516 15.1087C13.0698 15.5106 13.6186 15.8753 14.1935 16.2C14.7556 16.5175 15.3464 16.7865 15.959 17.0036C16.4488 17.1767 16.9535 17.3087 17.4675 17.3982C17.5224 17.4076 17.9368 17.4902 18.1192 17.3583C18.3015 17.2264 18.2522 16.8792 18.2216 16.7537C18.1909 16.6281 18.1622 16.5088 18.1341 16.3862C17.9547 15.6065 17.8112 14.8238 17.6955 14.0406C17.4647 12.4736 17.3432 10.9043 17.2923 9.33896C17.2413 7.77362 17.2629 6.21207 17.3311 4.65571C17.3651 3.87763 17.4099 3.10061 17.4656 2.32466C17.5195 1.54897 17.5831 0.774487 17.6437 0C17.658 0.776483 17.6691 1.55337 17.6899 2.32925C17.7107 3.10514 17.7392 3.88002 17.7799 4.65391C17.8611 6.20149 17.9897 7.74408 18.1874 9.27389C18.2272 9.58155 18.27 9.88855 18.3156 10.1949C18.3305 10.2947 18.3888 10.539 18.5621 10.5917C18.6933 10.6316 18.9337 10.5005 19.0221 10.4586C19.4376 10.2623 19.8326 10.029 20.2019 9.76193C20.5753 9.49088 20.9219 9.18801 21.2374 8.8571C21.5577 8.52135 21.8468 8.15991 22.1017 7.77681C22.2301 7.58412 22.3507 7.38604 22.4634 7.18257C22.5194 7.0809 22.5737 6.9781 22.6265 6.87417C22.6528 6.82227 22.6784 6.76998 22.7035 6.71728L22.741 6.63843L22.7457 6.62845L22.744 6.63285V6.63125L22.7465 6.62526L22.7557 6.6037L22.7742 6.56119C22.873 6.33702 22.9771 6.11845 23.0854 5.90107C23.1936 5.6837 23.3067 5.46912 23.4242 5.25693C23.6578 4.83195 23.9152 4.41923 24.1954 4.02055C24.3364 3.82214 24.4845 3.62851 24.6421 3.44168C24.7984 3.25538 24.9672 3.07882 25.1473 2.91311C24.9903 3.09707 24.8459 3.29043 24.7149 3.49198C24.5835 3.69159 24.4631 3.89799 24.3494 4.10738C24.1255 4.52693 23.9255 4.95765 23.7503 5.39766C23.6619 5.61723 23.5785 5.83826 23.5002 6.06076C23.4221 6.28293 23.3479 6.50709 23.2811 6.73006L23.269 6.77157L23.2631 6.79154L23.2618 6.79613V6.79872C23.2609 6.80198 23.2597 6.80518 23.2583 6.8083L23.2549 6.81928L23.226 6.90671C23.2067 6.9646 23.1867 7.02268 23.1659 7.08057C23.124 7.19634 23.0803 7.31145 23.035 7.4259C22.9428 7.65492 22.8409 7.88114 22.7291 8.10457C22.5043 8.55341 22.2392 8.98297 21.9368 9.38846C21.6302 9.79926 21.285 10.1826 20.9053 10.5338C20.5209 10.8893 20.1022 11.2095 19.6547 11.4902C19.4991 11.5873 19.3397 11.6798 19.1763 11.7676C19.1406 11.7876 18.9497 11.9095 18.8502 12.087C18.744 12.2768 18.7308 12.5247 18.7524 12.6273C18.8364 13.0222 18.9262 13.4151 19.0219 13.806C19.2057 14.5482 19.4147 15.282 19.6547 16.0017C19.8947 16.7215 20.1665 17.4284 20.4755 18.113C20.7794 18.7918 21.1294 19.4512 21.5232 20.0868C21.9065 20.7063 22.3457 21.2929 22.8357 21.8401C22.957 21.9741 23.081 22.1046 23.2079 22.2316L23.3042 22.3262L23.4154 22.4366C23.4893 22.5107 23.5627 22.5851 23.6355 22.6597C23.8093 22.838 24.3582 23.3284 24.918 23.5835C25.2428 23.7294 25.6073 23.7755 25.9608 23.7155C26.5064 23.6213 27.0438 23.2983 27.2702 23.1693C29.3422 21.9921 31.0813 20.352 32.3367 18.3911C32.9718 17.395 33.4862 16.3336 33.8701 15.2273L33.8822 15.1929L33.899 15.1548L33.9162 15.1167L33.9511 15.0414L34.0209 14.8931C34.0679 14.7948 34.1156 14.6971 34.1638 14.6001C34.2605 14.4061 34.3595 14.2136 34.4609 14.0228C34.6632 13.6409 34.873 13.2638 35.0904 12.8914C35.5263 12.1462 35.9904 11.4188 36.4828 10.7093C36.9752 9.99974 37.4956 9.31095 38.044 8.64292C38.5929 7.97602 39.1709 7.33208 39.7796 6.71788C39.2295 7.38019 38.7152 8.06684 38.2332 8.77167C37.7512 9.47649 37.3028 10.2007 36.8832 10.9378C36.4635 11.675 36.0745 12.4267 35.7161 13.1894C35.5369 13.5711 35.3661 13.9553 35.2037 14.342C35.1227 14.5355 35.0443 14.7294 34.9683 14.9237C34.9305 15.0208 34.8935 15.118 34.8573 15.2153L34.8042 15.3606L34.7786 15.4329L34.7662 15.4686L34.7551 15.5017L34.766 15.47C34.4659 16.6805 34.0224 17.8547 33.4441 18.9701C33.3726 19.1079 33.3165 19.3881 33.4487 19.574C33.5616 19.7327 33.8474 19.8093 33.9823 19.8135C34.5701 19.8311 35.158 19.7842 35.7344 19.6738C36.3173 19.5619 36.884 19.384 37.4224 19.1438C37.9696 18.8987 38.4854 18.5947 38.9598 18.238C39.2009 18.0574 39.432 17.8652 39.6523 17.6621C39.7628 17.5602 39.871 17.4554 39.9769 17.3479L39.9968 17.328L40.0016 17.323L40.0042 17.3204C40.0132 17.3108 40.0176 17.3058 40.0201 17.3036L40.0335 17.2914C40.0503 17.2765 40.0663 17.2627 40.0824 17.2489C40.1145 17.2214 40.1464 17.1948 40.1785 17.1691C40.2426 17.117 40.307 17.0663 40.3718 17.0168C40.6315 16.8192 40.8999 16.6375 41.1756 16.4672C41.4513 16.297 41.7348 16.1405 42.0246 15.9966C42.6014 15.7085 43.2067 15.4752 43.8316 15.3001C44.4503 15.1267 45.0875 15.0196 45.7312 14.9807C45.1036 15.0859 44.4903 15.2573 43.9027 15.4919C43.3214 15.7242 42.7655 16.0104 42.243 16.3463C41.9831 16.5131 41.7322 16.6906 41.4902 16.8786C41.2486 17.0667 41.0166 17.2647 40.799 17.4719C40.7449 17.5238 40.6916 17.5763 40.6397 17.629C40.6139 17.6553 40.5885 17.6819 40.564 17.7088C40.5518 17.722 40.5396 17.7352 40.5287 17.7475L40.5239 17.7533L40.5342 17.7423L40.5319 17.7453L40.5273 17.7513L40.5086 17.7749C40.4097 17.901 40.3073 18.0251 40.2014 18.1472C39.9891 18.3925 39.7636 18.6273 39.526 18.8506C39.0439 19.3039 38.5088 19.7033 37.9313 20.0409C37.3447 20.3817 36.7174 20.6546 36.0628 20.8537C35.0662 21.1564 34.0224 21.2942 32.9768 21.2609C32.8008 21.2551 32.1585 21.379 31.9 21.5731C31.6577 21.7545 31.3991 21.9691 31.268 22.116C30.4023 23.0846 29.4178 23.951 28.3355 24.6968C28.0977 24.8608 27.8552 25.0191 27.608 25.1716C27.5228 25.2239 27.0094 25.5647 26.8344 26.0419C26.6728 26.4829 26.8438 27.0613 26.8839 27.1418C27.6562 28.6912 29.5407 36.9528 39.7855 36.2462C49.99 35.542 51.9847 26.6563 52 26.5869Z" fill="#25523B"/>
<path d="M27.8145 24.0066C28.2552 23.9391 28.5248 23.7892 28.8263 23.4977C29.1066 23.2265 29.3431 22.842 29.4994 22.3224C30.0681 20.4335 28.8995 17.4162 25.7261 17.131C26.8902 18.7905 25.5444 20.2637 25.5536 21.5593C25.5629 22.855 26.0104 23.6407 26.8441 23.9205C26.9198 23.9461 27.373 24.074 27.8145 24.0066Z" fill="#25523B"/>
<path d="M29.3714 27.6025C29.3924 27.1775 29.5206 26.9068 29.791 26.5899C30.0428 26.295 30.4193 26.0293 30.9451 25.8243C32.8562 25.0796 36.1373 25.8537 36.7833 28.8229C34.9217 27.9047 33.531 29.3383 32.1753 29.4716C30.8196 29.605 29.9511 29.268 29.5665 28.5105C29.5321 28.4422 29.3487 28.0272 29.3714 27.6025Z" fill="#25523B"/>
<path d="M31.7266 19.3235C32.0688 19.2712 32.2771 19.155 32.5107 18.929C32.7278 18.7189 32.911 18.421 33.0323 18.0184C33.4729 16.5547 32.5673 14.2167 30.1084 13.9955C31.0106 15.2816 29.9676 16.4229 29.9747 17.427C29.9818 18.431 30.3287 19.0398 30.9745 19.2568C31.0335 19.2766 31.3845 19.3758 31.7266 19.3235Z" fill="#25523B"/>
<path d="M34.5048 14.5414C34.768 14.5014 34.9283 14.4118 35.1077 14.2382C35.2755 14.0767 35.4157 13.8475 35.5089 13.5379C35.8477 12.4125 35.1522 10.6144 33.2606 10.444C33.954 11.4328 33.1523 12.3105 33.1577 13.0826C33.1632 13.8547 33.4305 14.3228 33.9265 14.4897C33.9719 14.5054 34.2417 14.5817 34.5048 14.5414Z" fill="#25523B"/>
<path d="M37.2546 11.2288C37.458 11.1979 37.5817 11.129 37.7204 10.9945C37.8495 10.8695 37.9584 10.6927 38.0306 10.4534C38.2924 9.58345 37.7542 8.19397 36.2928 8.06262C36.8289 8.82673 36.2088 9.50521 36.2135 10.1018C36.2181 10.6985 36.4233 11.06 36.8077 11.1893C36.8425 11.2011 37.0511 11.26 37.2546 11.2288Z" fill="#25523B"/>
<path d="M16.2781 11.8194C16.54 11.6036 16.6529 11.4002 16.7263 11.0914C16.7947 10.804 16.7855 10.4588 16.6657 10.0558C16.2301 8.59088 14.166 7.05687 11.9532 8.10063C13.4318 8.74218 13.1773 10.2349 13.7392 11.0848C14.3012 11.9347 14.9327 12.2785 15.6021 12.1395C15.6629 12.1268 16.0163 12.0351 16.2781 11.8194Z" fill="#25523B"/>
<path d="M16.2632 7.1681C16.4695 7.00841 16.561 6.85392 16.6248 6.61798C16.6839 6.3984 16.685 6.13292 16.6023 5.82073C16.3018 4.68535 14.751 3.46274 13.0258 4.21826C14.1473 4.74244 13.9167 5.88441 14.3288 6.54971C14.7409 7.21501 15.2183 7.49247 15.7359 7.39965C15.7832 7.39127 16.0568 7.32839 16.2632 7.1681Z" fill="#25523B"/>
<path d="M16.7079 3.36897C16.8516 3.22924 16.9077 3.10289 16.9347 2.91645C16.9601 2.74279 16.9364 2.53899 16.8441 2.30604C16.509 1.4595 15.2047 0.650278 13.9491 1.37506C14.8587 1.68406 14.7871 2.58011 15.1661 3.05658C15.545 3.53305 15.9362 3.70611 16.325 3.59153C16.36 3.58055 16.5644 3.50929 16.7079 3.36897Z" fill="#25523B"/>
<path d="M18.8091 10.7261C18.5472 10.5103 18.4343 10.3069 18.3609 9.99809C18.2925 9.71045 18.3015 9.36553 18.4213 8.96251C18.8569 7.49757 20.9212 5.96337 23.1341 7.00733C21.6552 7.64868 21.9099 9.14156 21.348 9.9915C20.7861 10.8414 20.1543 11.1852 19.4852 11.046C19.4243 11.0335 19.071 10.9418 18.8091 10.7261Z" fill="#25523B"/>
<path d="M18.824 6.0746C18.6178 5.91491 18.5261 5.76041 18.4625 5.52447C18.4031 5.3049 18.4021 5.03962 18.4847 4.72723C18.7854 3.59205 20.3362 2.36924 22.0614 3.12496C20.9397 3.64914 21.1703 4.79111 20.7584 5.45641C20.3465 6.12171 19.8688 6.39916 19.3511 6.30635C19.3041 6.29796 19.0303 6.23509 18.824 6.0746Z" fill="#25523B"/>
<path d="M18.3792 2.27564C18.2357 2.13591 18.1796 2.00956 18.1524 1.82292C18.1272 1.64946 18.1509 1.44566 18.2432 1.21271C18.5789 0.366166 19.8826 -0.444052 21.1374 0.281132C20.2278 0.589929 20.2995 1.48618 19.9216 1.96245C19.5437 2.43872 19.1516 2.61198 18.7627 2.4976C18.7273 2.48722 18.5233 2.41596 18.3792 2.27564Z" fill="#25523B"/>
<path d="M21.1772 14.5932C21.1007 14.2718 21.1353 14.0445 21.2696 13.7549C21.3936 13.4848 21.6158 13.2119 21.9633 12.9548C23.2268 12.0202 25.8451 11.948 26.9781 14.0363C25.3876 13.7193 24.6629 15.0655 23.6809 15.4336C22.6989 15.8017 21.9759 15.7224 21.5235 15.234C21.4819 15.1881 21.2538 14.9148 21.1772 14.5932Z" fill="#25523B"/>
<path d="M23.53 10.5841C23.4637 10.3387 23.4858 10.1633 23.5814 9.93732C23.6704 9.72693 23.8349 9.51255 24.0959 9.30755C25.0452 8.56261 27.056 8.45162 27.9752 10.0327C26.7452 9.82274 26.2196 10.8727 25.4734 11.1763C24.7273 11.4799 24.1696 11.4354 23.811 11.0679C23.7776 11.0346 23.5963 10.8296 23.53 10.5841Z" fill="#25523B"/>
<path d="M24.9885 7.52308C24.9067 7.34343 24.9015 7.20669 24.9466 7.02405C24.9885 6.85338 25.0863 6.67094 25.2596 6.4851C25.8891 5.80763 27.4112 5.49244 28.313 6.59429C27.3478 6.57433 27.079 7.43665 26.5478 7.75403C26.0165 8.07141 25.5851 8.10035 25.2645 7.86161C25.2344 7.83786 25.0699 7.70273 24.9885 7.52308Z" fill="#25523B"/>
<path d="M42.045 17.4951C42.2321 17.5764 42.3757 17.5841 42.5695 17.5456C42.7498 17.5095 42.9435 17.4195 43.1428 17.2584C43.8671 16.6721 44.228 15.2315 43.0878 14.3521C43.0893 15.2703 42.1782 15.5098 41.8345 16.0088C41.4908 16.5078 41.4516 16.9176 41.696 17.2264C41.7181 17.2548 41.8574 17.4139 42.045 17.4951Z" fill="#25523B"/>
<path d="M17.1945 23.3439C17.143 22.9213 16.9974 22.659 16.7049 22.3596C16.4322 22.0801 16.0391 21.8394 15.5005 21.6678C13.5422 21.0436 10.3216 22.0205 9.88135 25.0236C11.6758 23.9908 13.163 25.3352 14.524 25.3829C15.8849 25.4306 16.7299 25.041 17.061 24.2613C17.0912 24.1904 17.2457 23.7665 17.1945 23.3439Z" fill="#25523B"/>
<path d="M12.6142 19.9695C12.5741 19.6421 12.461 19.4391 12.2339 19.2074C12.0226 18.9918 11.7178 18.8048 11.3002 18.672C9.78211 18.19 7.28748 18.9493 6.94861 21.2767C8.33829 20.4751 9.49192 21.5163 10.5467 21.5524C11.6015 21.5885 12.2558 21.2859 12.5115 20.6815C12.5348 20.6264 12.6542 20.2981 12.6142 19.9695Z" fill="#25523B"/>
<path d="M9.578 16.6096C9.52995 16.3603 9.43259 16.2104 9.24626 16.0429C9.07273 15.8866 8.82933 15.7585 8.50158 15.6766C7.31123 15.379 5.43811 16.0806 5.29962 17.8825C6.32379 17.2012 7.26381 17.9448 8.075 17.9224C8.8862 17.9001 9.37237 17.6364 9.53687 17.1605C9.55177 17.1174 9.62668 16.8589 9.578 16.6096Z" fill="#25523B"/>
<path d="M6.93142 14.1741C6.88945 13.9825 6.81098 13.8679 6.66368 13.7424C6.52645 13.6254 6.33551 13.5302 6.08078 13.4729C5.15523 13.2647 3.72127 13.841 3.65161 15.2358C4.42902 14.6907 5.17034 15.248 5.79667 15.2159C6.42301 15.1837 6.79314 14.9714 6.91086 14.6005C6.92135 14.5669 6.9736 14.3659 6.93142 14.1741Z" fill="#25523B"/>
<path d="M15.2381 18.0025C14.8946 18.0458 14.66 17.9915 14.368 17.839C14.0964 17.6973 13.831 17.4619 13.5931 17.1096C12.729 15.8281 12.8897 13.341 15.1781 12.4569C14.7028 13.9342 16.0474 14.7424 16.3431 15.707C16.6387 16.6715 16.4912 17.3486 15.9383 17.733C15.8879 17.7669 15.5816 17.958 15.2381 18.0025Z" fill="#25523B"/>
<path d="M11.4855 15.4285C11.2196 15.4455 11.0423 15.3926 10.8264 15.2618C10.6254 15.1401 10.434 14.9468 10.2702 14.665C9.67446 13.6406 9.92898 11.7399 11.7314 11.1704C11.2889 12.2822 12.2769 12.9669 12.454 13.7198C12.6311 14.4728 12.4813 14.9866 12.0367 15.2552C11.9964 15.2796 11.7513 15.4115 11.4855 15.4285Z" fill="#25523B"/>
<path d="M8.4554 13.3648C8.24977 13.3731 8.1138 13.329 7.94971 13.225C7.79696 13.1272 7.65302 12.9745 7.53195 12.7537C7.09236 11.9513 7.32737 10.4874 8.73153 10.0806C8.36706 10.9313 9.11698 11.4778 9.23847 12.0635C9.35996 12.6491 9.23386 13.0426 8.88491 13.2412C8.85323 13.2592 8.66145 13.3566 8.4554 13.3648Z" fill="#25523B"/>
<path d="M35.5959 20.1134C35.3265 19.9062 35.2065 19.7068 35.1219 19.4004C35.0434 19.1153 35.0401 18.7702 35.1454 18.3624C35.5285 16.8853 37.5374 15.2842 39.7855 16.2559C38.3306 16.9448 38.6384 18.4285 38.1069 19.2962C37.5754 20.1639 36.9566 20.5278 36.2829 20.4104C36.2218 20.4008 35.8653 20.3206 35.5959 20.1134Z" fill="#25523B"/>
<path d="M37.4262 15.2388C37.2487 15.0497 37.1837 14.8843 37.1596 14.6417C37.1371 14.416 37.1805 14.1537 37.3127 13.8577C37.7953 12.781 39.5289 11.8041 41.1087 12.8071C39.9148 13.158 39.9547 14.3202 39.4383 14.916C38.9219 15.5118 38.4047 15.7144 37.9089 15.5462C37.8635 15.5308 37.6036 15.4276 37.4262 15.2388Z" fill="#25523B"/>
<path d="M39.7559 11.2854C39.6355 11.1257 39.5992 10.9943 39.6011 10.8063C39.6028 10.631 39.6575 10.4326 39.7847 10.2152C40.2463 9.42439 41.6607 8.805 42.7909 9.69626C41.8437 9.87591 41.7768 10.7718 41.3298 11.1903C40.8829 11.6089 40.4683 11.7259 40.1011 11.5586C40.0677 11.5431 39.8764 11.4442 39.7559 11.2854Z" fill="#25523B"/>
<path d="M35.6033 24.4385C35.6528 24.1121 35.7711 23.9121 36.0053 23.6863C36.2227 23.4764 36.533 23.2973 36.9541 23.1755C38.4859 22.7334 40.9574 23.5576 41.229 25.893C39.8628 25.0547 38.6796 26.0655 37.6241 26.0747C36.5687 26.0839 35.9245 25.7635 35.6853 25.1527C35.6643 25.097 35.5546 24.7646 35.6033 24.4385Z" fill="#25523B"/>
<path d="M40.1496 21.9441C40.1026 21.6946 40.1382 21.5211 40.2513 21.3025C40.3562 21.0991 40.5373 20.8971 40.8137 20.7111C41.8187 20.0354 43.8327 20.0671 44.6254 21.7091C43.4153 21.4127 42.8091 22.4225 42.0412 22.6724C41.2732 22.9224 40.7207 22.8373 40.3913 22.4465C40.3613 22.4108 40.1963 22.1942 40.1496 21.9441Z" fill="#25523B"/>
<path d="M43.5326 19.131C43.5175 18.9356 43.5595 18.805 43.6648 18.6456C43.7626 18.4972 43.9187 18.3555 44.1474 18.2338C44.9767 17.7906 46.5221 17.9681 46.9938 19.2903C46.0883 18.9709 45.5375 19.7007 44.9263 19.8344C44.3151 19.9682 43.8982 19.861 43.677 19.535C43.6562 19.5059 43.5478 19.3264 43.5326 19.131Z" fill="#25523B"/>
</svg>
