<svg width="123" height="36" viewBox="0 0 123 36" fill="none" xmlns="http://www.w3.org/2000/svg">
<path d="M27.2233 4.99658C25.4794 8.28868 23.8152 16.7414 31.1097 24.2153C33.7505 21.3385 36.6703 13.4671 27.2233 4.99658Z" fill="black"/>
<path d="M33.0888 31.9029C31.9259 28.0794 33.9545 18.6697 50.8559 8.24902C49.6068 16.4145 44.2013 31.9029 33.0888 31.9029Z" fill="black"/>
<path d="M29.1523 32.9152C10.5296 35.0016 -0.373246 14.3168 0.252769 3.03272C2.03987 3.33235 11.6194 7.0403 21.1609 16.4681C30.233 27.3176 32.9387 32.491 29.1523 32.9152Z" fill="black"/>
<path d="M70.2282 20.804C70.2282 22.1665 69.7244 23.2025 68.7167 23.9121C67.7233 24.6075 66.3679 24.9553 64.6506 24.9553H62.8198V31.2354H60.7548V17.1424H65.3318C66.7653 17.1424 67.9361 17.4688 68.8444 18.1217C69.7669 18.7745 70.2282 19.6686 70.2282 20.804ZM62.8198 24.3379H64.7145C65.3815 24.3379 65.9492 24.2102 66.4176 23.9547C66.9001 23.6992 67.2478 23.3728 67.4607 22.9754C67.8439 22.2658 68.0355 21.5775 68.0355 20.9104C68.0355 20.584 67.9503 20.1937 67.78 19.7396C67.4394 18.8029 66.7369 18.1926 65.6725 17.9088C64.6506 17.9088 63.6997 18.0294 62.8198 18.2707V24.3379ZM73.4016 16.6953V31.2354H71.6133V16.6953H73.4016ZM80.6299 28.9788V26.7861C79.608 26.857 78.7707 27.0841 78.1178 27.4673C77.465 27.8505 77.1386 28.2621 77.1386 28.702C77.1386 29.142 77.2521 29.5252 77.4792 29.8516C77.7063 30.1638 77.9972 30.3838 78.352 30.5115C78.8204 30.4264 79.3171 30.1922 79.8422 29.809C80.3673 29.4258 80.6299 29.1491 80.6299 28.9788ZM82.3755 28.404C82.3755 29.4116 82.7445 30.178 83.4825 30.7031L82.3755 31.5121L80.6512 29.958C79.53 30.9799 78.4939 31.4908 77.5431 31.4908C76.9186 31.4908 76.3793 31.2921 75.9251 30.8947C75.4852 30.4974 75.2652 30.0006 75.2652 29.4045C75.2652 28.7943 75.4426 28.2904 75.7974 27.8931C76.1664 27.4957 76.6489 27.1905 77.245 26.9777C78.2669 26.5945 79.3951 26.3532 80.6299 26.2539V24.2527C80.6299 23.0748 79.9487 22.4858 78.5862 22.4858C77.8056 22.4858 76.8831 22.6561 75.8187 22.9967L75.6271 22.4645C75.9109 22.2374 76.4006 21.9962 77.096 21.7407C77.8056 21.4852 78.4797 21.3575 79.1184 21.3575C79.7571 21.3575 80.2893 21.4427 80.715 21.613C81.155 21.7833 81.4743 21.9749 81.673 22.1878C81.8859 22.4006 82.0491 22.6916 82.1627 23.0606C82.2762 23.4296 82.3401 23.7205 82.3542 23.9334C82.3684 24.1463 82.3755 24.4301 82.3755 24.7849V28.404ZM87.0271 22.9754C87.6232 22.4077 88.1412 21.9962 88.5812 21.7407C89.0353 21.4852 89.5675 21.3575 90.1778 21.3575C90.7881 21.3575 91.3487 21.5988 91.8596 22.0813C92.3847 22.5639 92.6473 23.3941 92.6473 24.5721V31.2354H90.8378V24.7849C90.8378 24.0895 90.71 23.5715 90.4546 23.2309C90.2133 22.8761 89.7875 22.6987 89.1773 22.6987C88.5812 22.6987 87.8858 23.0961 87.091 23.8908V31.2354H85.2815V24.5508C85.2815 23.5857 84.9196 22.8122 84.1958 22.2303L85.2815 21.4214L87.0271 22.9754ZM97.5046 29.362C97.5046 29.7877 97.5897 30.1071 97.7601 30.3199C97.9304 30.5328 98.2142 30.6393 98.6116 30.6393C99.009 30.6393 99.4844 30.5328 100.038 30.3199V30.916C99.2148 31.2992 98.4768 31.4908 97.8239 31.4908C97.1711 31.4908 96.6531 31.3134 96.2699 30.9586C95.9009 30.5896 95.7164 30.0219 95.7164 29.2555V22.3794L93.992 22.0387V21.613H95.7164V20.8466L97.5046 19.548V21.613H100.038V22.3794H97.5046V29.362ZM108.474 21.613H109.283L105.642 31.5547C105.174 32.8604 104.472 33.9106 103.535 34.7054C102.598 35.5001 101.569 35.9046 100.448 35.9188L100.661 34.8544C102.577 34.7834 104.067 33.5416 105.132 31.1289L100.81 21.613H102.705L105.962 28.8298L108.474 21.613ZM110.359 16.8231H112.084V18.3133L111.466 22.06H110.956L110.359 18.3133V16.8231ZM118.339 25.9345L122.15 31.2354H120.042L117.296 27.2118L114.358 31.2354H113.336L116.87 26.7435L113.4 21.613H115.508L117.935 25.4875L120.787 21.613H121.83L118.339 25.9345Z" fill="black"/>
</svg>
