<svg width="71" height="24" viewBox="0 0 71 24" fill="none" xmlns="http://www.w3.org/2000/svg">
<path d="M5.53174 10.2485V15.0703C5.53174 16.112 5.64567 16.759 5.87354 17.0112C6.18278 17.3693 6.65072 17.5483 7.27734 17.5483H7.91211V18H0.819824V17.5483H1.44238C2.14225 17.5483 2.64274 17.3205 2.94385 16.8647C3.10661 16.6125 3.18799 16.0143 3.18799 15.0703V4.37695C3.18799 3.33529 3.07812 2.68831 2.8584 2.43604C2.54102 2.07796 2.06901 1.89893 1.44238 1.89893H0.819824V1.44727H6.88672C8.36784 1.44727 9.53564 1.60189 10.3901 1.91113C11.2446 2.21224 11.9648 2.72493 12.5508 3.44922C13.1367 4.1735 13.4297 5.03206 13.4297 6.0249C13.4297 7.37581 12.9821 8.47445 12.0869 9.3208C11.1999 10.1672 9.94255 10.5903 8.31494 10.5903C7.91618 10.5903 7.48486 10.5618 7.021 10.5049C6.55713 10.4479 6.06071 10.3625 5.53174 10.2485ZM5.53174 9.55273C5.96305 9.63411 6.34554 9.69515 6.6792 9.73584C7.01286 9.77653 7.29769 9.79688 7.53369 9.79688C8.38005 9.79688 9.1084 9.47135 9.71875 8.82031C10.3372 8.16113 10.6465 7.31071 10.6465 6.26904C10.6465 5.5529 10.5 4.88965 10.207 4.2793C9.91406 3.66081 9.49902 3.20101 8.96191 2.8999C8.4248 2.59066 7.81445 2.43604 7.13086 2.43604C6.71582 2.43604 6.18278 2.51335 5.53174 2.66797V9.55273ZM20.1973 0.641602V15.4731C20.1973 16.173 20.2461 16.6369 20.3438 16.8647C20.4495 17.0926 20.6082 17.2676 20.8198 17.3896C21.0314 17.5036 21.4261 17.5605 22.0039 17.5605V18H16.5229V17.5605C17.0356 17.5605 17.3856 17.5076 17.5728 17.4019C17.7599 17.2961 17.9064 17.1211 18.0122 16.877C18.118 16.6328 18.1709 16.1649 18.1709 15.4731V5.31689C18.1709 4.0555 18.1424 3.28239 18.0854 2.99756C18.0285 2.70459 17.9349 2.50521 17.8047 2.39941C17.6826 2.29362 17.5239 2.24072 17.3286 2.24072C17.117 2.24072 16.8485 2.30583 16.5229 2.43604L16.3154 2.00879L19.6479 0.641602H20.1973ZM30.8955 16.3887C29.748 17.2757 29.0278 17.7884 28.7349 17.9268C28.2954 18.1302 27.8275 18.2319 27.3311 18.2319C26.5579 18.2319 25.9191 17.9674 25.4146 17.4385C24.9181 16.9095 24.6699 16.2137 24.6699 15.3511C24.6699 14.8058 24.792 14.3338 25.0361 13.9351C25.3698 13.3817 25.9476 12.8608 26.7695 12.3726C27.5996 11.8843 28.9749 11.2902 30.8955 10.5903V10.1509C30.8955 9.03597 30.7165 8.271 30.3584 7.85596C30.0085 7.44092 29.4958 7.2334 28.8203 7.2334C28.3076 7.2334 27.9007 7.37174 27.5996 7.64844C27.2904 7.92513 27.1357 8.24251 27.1357 8.60059L27.1602 9.30859C27.1602 9.68294 27.0625 9.97184 26.8672 10.1753C26.68 10.3787 26.4318 10.4805 26.1226 10.4805C25.8215 10.4805 25.5732 10.3747 25.3779 10.1631C25.1908 9.9515 25.0972 9.6626 25.0972 9.29639C25.0972 8.59652 25.4552 7.95361 26.1714 7.36768C26.8875 6.78174 27.8926 6.48877 29.1865 6.48877C30.1794 6.48877 30.9932 6.6556 31.6279 6.98926C32.1081 7.24154 32.4621 7.63623 32.6899 8.17334C32.8364 8.52327 32.9097 9.23942 32.9097 10.3218V14.1182C32.9097 15.1842 32.93 15.8394 32.9707 16.0835C33.0114 16.3195 33.0765 16.4782 33.166 16.5596C33.2637 16.641 33.3735 16.6816 33.4956 16.6816C33.6258 16.6816 33.7397 16.6532 33.8374 16.5962C34.0083 16.4904 34.3379 16.1934 34.8262 15.7051V16.3887C33.9147 17.6094 33.0439 18.2197 32.2139 18.2197C31.8151 18.2197 31.4977 18.0814 31.2617 17.8047C31.0257 17.528 30.9036 17.056 30.8955 16.3887ZM30.8955 15.5952V11.335C29.6667 11.8232 28.8732 12.1691 28.5151 12.3726C27.8722 12.7306 27.4124 13.105 27.1357 13.4956C26.859 13.8862 26.7207 14.3135 26.7207 14.7773C26.7207 15.3633 26.8957 15.8516 27.2456 16.2422C27.5955 16.6247 27.9984 16.8159 28.4541 16.8159C29.0726 16.8159 29.8864 16.409 30.8955 15.5952ZM40.1777 8.85693C41.488 7.27816 42.7371 6.48877 43.9253 6.48877C44.5356 6.48877 45.0605 6.64339 45.5 6.95264C45.9395 7.25374 46.2894 7.75423 46.5498 8.4541C46.7288 8.94238 46.8184 9.69108 46.8184 10.7002V15.4731C46.8184 16.1812 46.8753 16.6613 46.9893 16.9136C47.0788 17.117 47.2212 17.2757 47.4165 17.3896C47.62 17.5036 47.9902 17.5605 48.5273 17.5605V18H42.9976V17.5605H43.2295C43.7503 17.5605 44.1125 17.4832 44.3159 17.3286C44.5275 17.1659 44.674 16.9299 44.7554 16.6206C44.7879 16.4985 44.8042 16.116 44.8042 15.4731V10.8955C44.8042 9.87826 44.6699 9.14176 44.4014 8.68604C44.141 8.22217 43.6974 7.99023 43.0708 7.99023C42.1024 7.99023 41.138 8.51921 40.1777 9.57715V15.4731C40.1777 16.23 40.2225 16.6979 40.312 16.877C40.4259 17.113 40.5806 17.2879 40.7759 17.4019C40.9793 17.5076 41.3862 17.5605 41.9966 17.5605V18H36.4668V17.5605H36.7109C37.2806 17.5605 37.6631 17.4181 37.8584 17.1333C38.0618 16.8403 38.1636 16.2869 38.1636 15.4731V11.3228C38.1636 9.97998 38.131 9.16211 38.0659 8.86914C38.009 8.57617 37.9154 8.37679 37.7852 8.271C37.6631 8.1652 37.4963 8.1123 37.2847 8.1123C37.0568 8.1123 36.7842 8.17334 36.4668 8.29541L36.2837 7.85596L39.6528 6.48877H40.1777V8.85693ZM53.9155 3.14404V6.81836H56.5278V7.67285H53.9155V14.9238C53.9155 15.6481 54.0173 16.1364 54.2207 16.3887C54.4323 16.641 54.7008 16.7671 55.0264 16.7671C55.2949 16.7671 55.5553 16.6857 55.8076 16.5229C56.0599 16.3521 56.2552 16.1038 56.3936 15.7783H56.8696C56.5848 16.5758 56.182 17.1781 55.6611 17.585C55.1403 17.9837 54.6032 18.1831 54.0498 18.1831C53.6755 18.1831 53.3092 18.0814 52.9512 17.8779C52.5931 17.6663 52.3286 17.3693 52.1577 16.9868C51.9868 16.5962 51.9014 15.998 51.9014 15.1924V7.67285H50.1313V7.27002C50.5789 7.09098 51.0347 6.78988 51.4985 6.3667C51.9705 5.93538 52.3896 5.42676 52.7559 4.84082C52.943 4.53158 53.2035 3.96598 53.5371 3.14404H53.9155ZM58.2417 6.81836H63.4541V7.27002H63.1978C62.8315 7.27002 62.5549 7.3514 62.3677 7.51416C62.1886 7.66878 62.0991 7.8641 62.0991 8.1001C62.0991 8.41748 62.2334 8.85693 62.502 9.41846L65.2241 15.0581L67.7266 8.88135C67.8649 8.54769 67.9341 8.2181 67.9341 7.89258C67.9341 7.74609 67.9056 7.63623 67.8486 7.56299C67.7835 7.47347 67.6818 7.4043 67.5435 7.35547C67.4051 7.2985 67.161 7.27002 66.811 7.27002V6.81836H70.4487V7.27002C70.1476 7.30257 69.9157 7.36768 69.7529 7.46533C69.5902 7.56299 69.4111 7.74609 69.2158 8.01465C69.1426 8.12858 69.0042 8.44189 68.8008 8.95459L64.2476 20.1118C63.8081 21.1942 63.2303 22.012 62.5142 22.5654C61.8062 23.1188 61.1226 23.3955 60.4634 23.3955C59.9832 23.3955 59.5885 23.2572 59.2793 22.9805C58.9701 22.7038 58.8154 22.3864 58.8154 22.0283C58.8154 21.6865 58.9253 21.4098 59.145 21.1982C59.3729 20.9948 59.6821 20.8931 60.0728 20.8931C60.3413 20.8931 60.7075 20.9826 61.1714 21.1616C61.4969 21.2837 61.7004 21.3447 61.7817 21.3447C62.0259 21.3447 62.2904 21.2186 62.5752 20.9663C62.8682 20.714 63.1611 20.2257 63.4541 19.5015L64.2476 17.5605L60.2314 9.12549C60.1094 8.87321 59.9141 8.5599 59.6455 8.18555C59.4421 7.90072 59.2752 7.70947 59.145 7.61182C58.9578 7.48161 58.6567 7.36768 58.2417 7.27002V6.81836Z" fill="#25523B"/>
</svg>
